<svg xmlns="http://www.w3.org/2000/svg"  viewBox="0 0 120 120">
  <path fill="#860094" d="M52.36,110h1.15a2.89,2.89,0,0,0,2.89-2.89V73.42l21,33.46a2.89,2.89,0,0,0,4,.91l1-.61a2.9,2.9,0,0,0,.91-4L60.14,66.34a8.63,8.63,0,0,0,1.55-5,8.84,8.84,0,0,0-1.57-5L44.26,60.25a8.32,8.32,0,0,0-.07,1.12,8.72,8.72,0,0,0,1.55,5L22.63,103.21a2.89,2.89,0,0,0,.91,4l1,.61a2.9,2.9,0,0,0,4-.91l21-33.47v33.69A2.89,2.89,0,0,0,52.36,110ZM17.87,58.63c.12,0,13.49-3.26,13.49-3.26A34.16,34.16,0,0,1,27.63,46a34.06,34.06,0,0,1-1-10.05L13.49,39.15c-2.1.52-2.75,5.28-1.43,10.65C13.28,54.85,15.81,58.63,17.87,58.63Zm33-33.11L33.05,29.88a2.9,2.9,0,0,0-1.68,1.31,7.35,7.35,0,0,0-.85,2,11.94,11.94,0,0,0-.36,1.87A28.76,28.76,0,0,0,31,45.15a29.07,29.07,0,0,0,3.93,9.33A12,12,0,0,0,36.11,56a7,7,0,0,0,1.68,1.38,3.19,3.19,0,0,0,1.53.45,2,2,0,0,0,.55-.07l17.05-4.17.89-.22A39.23,39.23,0,0,1,52,39.89a39.46,39.46,0,0,1-1.08-14.18A.9.9,0,0,0,50.91,25.52Zm57.63,16.15-7.21-29.46A2.89,2.89,0,0,0,98.53,10a2.74,2.74,0,0,0-.7.08l-39.9,9.78a2.89,2.89,0,0,0-1.3.69,5.69,5.69,0,0,0-1.43,2.14,11.55,11.55,0,0,0-.6,1.93c-.82,3.6-.64,8.85.74,14.46s3.74,10.57,6.19,13.36A11.48,11.48,0,0,0,63,53.86a3.18,3.18,0,0,0,.43.28,5,5,0,0,0,3.68.49l39.3-9.48A2.86,2.86,0,0,0,108.54,41.67Z" />
</svg>
