<svg xmlns="http://www.w3.org/2000/svg" viewBox="0 0 400 400">
  <g fill="#1fcecb">
		<path d="M107.42,333.36l-4.61-1.92c2.25-6.38.6-8.27.06-8.9-5.55-6.41-34.6-1.28-61.39,4L32,328.46l7.42-6.25c1.68-1.41,3.53-2.93,5.47-4.53,12-9.81,28.34-23.25,31-34.45s-1.19-23.86-11.34-37.42l4-3.07a151.9,151.9,0,0,0,20.79,21.18C113.73,284.38,123.26,300.74,107.42,333.36ZM90.3,314.56c8.16,0,13.52,1.44,16.35,4.71a8.92,8.92,0,0,1,.8,1.06c7.73-22.82-1-35.5-21.41-52.57q-3.66-3.06-7.12-6.34c2.88,8,3.48,15.67,1.79,22.95C77.83,296.54,63,309.28,50.16,319.8,67.6,316.5,80.83,314.56,90.3,314.56Z" transform="translate(-29.3 -9.97)"/>
		<path d="M372.61,394.47l-6-5c-14.48-12.11-33.51-21.64-56.55-28.32-22.58-6.57-49-10.52-80.62-12.1a273.31,273.31,0,0,0-105.68,15,249.55,249.55,0,0,0-48.51,23.34L67,392.52l4.73-8.47c4.47-8,9.7-16.46,14.75-24.64,4.27-6.9,8.3-13.43,11.81-19.54,1.73-3,3.27-5.94,4.6-8.66h0c14.56-30,6.55-43.82-16.89-63.41a157.11,157.11,0,0,1-21.47-21.91c-1-1.16-2-2.46-3.29-4.16-.12-.14-.23-.28-.34-.43l-.55-.75c-20-26.87-31.07-58.78-31.07-89.81A134.13,134.13,0,0,1,57,69.8c31.81-41,86.45-64.24,139.22-59.13,3.22.31,6.47.73,9.66,1.25,26.46,4.37,51,15.45,69,31.2,20.8,18.15,31.79,41.41,31.79,67.27,0,27.68-11.76,54.84-30.68,70.91-13.25,11.26-30.8,17.94-49.42,18.82a87.64,87.64,0,0,1-17.5-.92c-19.64-3-40.75-18.32-43.11-41.63v-.25a4.21,4.21,0,0,0,0-.5,5.9,5.9,0,0,1-.06-.59,45.34,45.34,0,0,1,16.9-38.34c13.71-11,33.09-13.71,54.71-7.73A29,29,0,0,0,245,87.27C243,71.11,232.6,58.13,215.83,50.76A75.63,75.63,0,0,0,170,46.38c-40.45,9-62.87,52.91-60.43,88.38,1.19,17.24,7.4,33,17.47,44.38,11.67,13.1,28.12,23.62,47.58,30.43,12.72,4.46,26.26,7,39.35,9.35,3.86.71,7.85,1.44,11.76,2.22,5,1,10.08,2,15,3.31,25.64,6.5,52.55,16.1,75.59,42.07,22,24.81,39.26,63.06,54.3,120.37ZM214.34,343.61q7.66,0,15.35.42c32.05,1.59,58.8,5.61,81.76,12.29,20.69,6,38.28,14.27,52.4,24.62C334.1,272.06,298.33,244.21,239.49,229.29,234.65,228,229.6,227,224.72,226c-3.88-.76-7.85-1.49-11.69-2.2-13.28-2.44-27-5-40.11-9.55-20.25-7.09-37.42-18.1-49.66-31.83-10.81-12.21-17.45-29-18.71-47.36-1.37-19.88,4.35-41.2,15.7-58.48,12-18.34,29.3-30.81,48.64-35.13a80.81,80.81,0,0,1,48.93,4.68c18.46,8.11,29.88,22.5,32.17,40.52a34,34,0,0,1-10,28.06l-1,1-1.41-.41c-20.59-6-38.93-3.76-51.64,6.42a40.36,40.36,0,0,0-15,34.1c0,.1,0,.23,0,.35,0,.31.07.62.08.94,2.16,20.72,21.18,34.34,38.88,37.08a82.11,82.11,0,0,0,16.5.86c17.53-.82,34-7.09,46.42-17.63,17.84-15.14,28.92-40.85,28.92-67.1,0-53.59-48.53-85.59-96.63-93.53-3.07-.51-6.21-.92-9.32-1.21-51.1-5-104,17.51-134.78,57.2A129.1,129.1,0,0,0,34.3,150.74c0,29.95,10.69,60.8,30.11,86.86l.49.67c.06.07.11.15.17.21l.12.15c1.27,1.67,2.26,2.93,3.23,4.08A152,152,0,0,0,89.23,264c24,20.05,33.63,36.17,19.06,67.56h0l-.9,1.87c-1.38,2.82-3,5.83-4.76,9C99.09,348.54,95,355.1,90.75,362c-3.31,5.34-6.69,10.8-9.87,16.17a254.24,254.24,0,0,1,41.21-18.87A278,278,0,0,1,214.34,343.61Z" transform="translate(-29.3 -9.97)"/>
		<path d="M252.55,124.36a2.47,2.47,0,0,1-1.63-.61,45.74,45.74,0,0,0-16.65-9.18,2.5,2.5,0,0,1,1.46-4.78A50.73,50.73,0,0,1,254.18,120a2.5,2.5,0,0,1-1.63,4.39Z" transform="translate(-29.3 -9.97)"/>
		<path d="M216.45,188.54c-21.36,0-38.74-16.08-38.74-35.85,0-10.14,2.83-17.81,8.66-23.45,5.53-5.37,13.36-4.45,20.93-3.55a80.54,80.54,0,0,0,9.15.72,71.89,71.89,0,0,0,9.23-.81c7.31-.95,14.87-1.94,20.32,3.13,6.1,5.68,9.19,13.74,9.19,24C255.19,172.46,237.81,188.54,216.45,188.54ZM198.63,130c-3.52,0-6.53.65-8.78,2.83-4.8,4.66-7.14,11.16-7.14,19.87,0,17,15.14,30.85,33.74,30.85s33.74-13.84,33.74-30.85c0-8.89-2.48-15.54-7.59-20.3-3.73-3.46-9.54-2.71-16.27-1.83a75.92,75.92,0,0,1-9.88.85,81.2,81.2,0,0,1-9.73-.76A71.82,71.82,0,0,0,198.63,130Z" transform="translate(-29.3 -9.97)"/>
		<path d="M216.45,168.87a16.18,16.18,0,1,1,16.18-16.18A16.2,16.2,0,0,1,216.45,168.87Zm0-27.36a11.18,11.18,0,1,0,11.18,11.18A11.2,11.2,0,0,0,216.45,141.51Z" transform="translate(-29.3 -9.97)"/>
		<circle cx="187.15" cy="142.72" r="6.84"/>
		<path d="M155.2,317.57a2.5,2.5,0,0,1-.88-4.84,27.5,27.5,0,0,0-8-53.16,2.5,2.5,0,0,1,.32-5,32.5,32.5,0,0,1,9.45,62.83A2.48,2.48,0,0,1,155.2,317.57Z" transform="translate(-29.3 -9.97)"/>
		<path d="M268.23,303.2c-1,0-2.12,0-3.22-.05a32.51,32.51,0,0,1-22.62-53.59,2.5,2.5,0,1,1,3.8,3.26,27.5,27.5,0,0,0,19.1,45.34c.94,0,2,0,2.94,0a2.5,2.5,0,0,1,0,5Z" transform="translate(-29.3 -9.97)"/>
		<path d="M202.94,298.19c-15.19,0-29.47-5.37-29.62-5.43a2.5,2.5,0,0,1,2-4.6c.13,0,17.77,6.51,33.53,4.72,14.13-1.62,27.6-11.44,29.09-12.55l1.54,2,1.49,2-1.49-2,1.46,2c-2.61,2-16.4,11.79-31.53,13.51A55.3,55.3,0,0,1,202.94,298.19Z" transform="translate(-29.3 -9.97)"/>
		<path d="M201.87,309.74c-1.56,0-3.11-.05-4.67-.15-1.14-.08-2.24-.18-3.25-.29a2.5,2.5,0,0,1,.58-5c.93.11,1.94.2,3,.27a63,63,0,0,0,21.77-2.32c.85-.24,1.69-.5,2.51-.78a2.5,2.5,0,1,1,1.6,4.74c-.85.29-1.77.57-2.74.85A68,68,0,0,1,201.87,309.74Z" transform="translate(-29.3 -9.97)"/>
	</g>
</svg>
